<svg width="204" height="204" viewBox="0 0 204 204" fill="none" xmlns="http://www.w3.org/2000/svg">
<path d="M6 54V135.204C6 156.329 23.1248 173.454 44.2493 173.454C44.25 173.454 44.25 173.455 44.25 173.455V190.013C44.25 194.888 47.371 198.238 50.6116 197.987C52.9167 197.808 54.65 195.878 56.5502 194.561L86.9989 173.455C86.9996 173.455 87.0007 173.454 87.0007 173.454H150C176.51 173.454 198 151.963 198 125.454V54C198 27.4903 176.51 6 150 6H54C27.4903 6 6 27.4903 6 54Z" stroke="#1E1E1E" stroke-width="12" stroke-linecap="round"/>
<path d="M102.234 66.7969C99.0312 66.7969 96.3945 65.6641 94.3242 63.3984C92.293 61.1328 91.2773 58.457 91.2773 55.3711C91.2773 52.4414 92.3906 49.8828 94.6172 47.6953C96.8828 45.5078 99.4609 44.4141 102.352 44.4141C105.398 44.4141 107.977 45.5664 110.086 47.8711C112.234 50.1758 113.309 52.832 113.309 55.8398C113.309 58.8086 112.195 61.3867 109.969 63.5742C107.781 65.7227 105.203 66.7969 102.234 66.7969ZM92.2734 93.75V80.9766C92.2734 78.9844 93.2695 77.9883 95.2617 77.9883H108.094C110.086 77.9883 111.082 78.9844 111.082 80.9766C111.082 89.4531 111.102 97.9492 111.141 106.465C111.18 114.941 111.199 123.438 111.199 131.953C111.199 133.984 110.184 135 108.152 135H95.1445C93.1133 135 92.0977 133.984 92.0977 131.953C92.0977 125.586 92.1172 119.219 92.1562 112.852C92.2344 106.484 92.2734 100.117 92.2734 93.75Z" fill="black" fill-opacity="0.8"/>
</svg>
