<?xml version="1.0" encoding="UTF-8" standalone="no"?><!DOCTYPE svg PUBLIC "-//W3C//DTD SVG 1.1//EN" "http://www.w3.org/Graphics/SVG/1.1/DTD/svg11.dtd"><svg width="100%" height="100%" viewBox="0 0 64 64" version="1.1" xmlns="http://www.w3.org/2000/svg" xmlns:xlink="http://www.w3.org/1999/xlink" xml:space="preserve" xmlns:serif="http://www.serif.com/" style="fill-rule:evenodd;clip-rule:evenodd;stroke-linecap:round;"><path d="M1.882,16.941l0,25.476c0,6.627 5.373,12 12,12c0,-0 0,0 0,0l0,5.195c0,1.529 0.979,2.58 1.996,2.502c0.723,-0.057 1.267,-0.662 1.863,-1.075l9.553,-6.622c-0,0 0,-0 0,-0l19.765,-0c8.317,-0 15.059,-6.742 15.059,-15.059l-0,-22.417c-0,-8.317 -6.742,-15.059 -15.059,-15.059l-30.118,0c-8.317,0 -15.059,6.742 -15.059,15.059Z" style="fill:none;fill-rule:nonzero;stroke:#1e1e1e;stroke-width:3.76px;"/><path d="M32.073,20.956c-1.004,-0 -1.832,-0.355 -2.481,-1.066c-0.637,-0.711 -0.956,-1.551 -0.956,-2.519c0,-0.919 0.349,-1.721 1.048,-2.408c0.711,-0.686 1.519,-1.029 2.426,-1.029c0.956,-0 1.765,0.361 2.427,1.084c0.674,0.723 1.011,1.557 1.011,2.5c-0,0.932 -0.35,1.741 -1.048,2.427c-0.686,0.674 -1.495,1.011 -2.427,1.011Zm-3.124,8.456l-0,-4.008c-0,-0.625 0.312,-0.937 0.937,-0.937l4.026,-0c0.625,-0 0.937,0.312 0.937,0.937c0,2.66 0.007,5.325 0.019,7.997c0.012,2.659 0.018,5.325 0.018,7.996c-0,0.637 -0.318,0.956 -0.956,0.956l-4.081,-0c-0.637,-0 -0.956,-0.319 -0.956,-0.956c0,-1.997 0.007,-3.995 0.019,-5.992c0.024,-1.998 0.037,-3.996 0.037,-5.993Z" style="fill-opacity:0.8;fill-rule:nonzero;"/></svg>